<?xml version="1.0" encoding="utf-8"?>
<!-- Generator: Adobe Illustrator 28.2.0, SVG Export Plug-In . SVG Version: 6.00 Build 0)  -->
<svg version="1.1" id="图层_1" xmlns="http://www.w3.org/2000/svg" xmlns:xlink="http://www.w3.org/1999/xlink" x="0px" y="0px"
	 viewBox="0 0 512 512" style="enable-background:new 0 0 512 512;" xml:space="preserve">
<style type="text/css">
	.st0{fill:#B2AFD7;}
	.st1{font-family:'yuweij';}
	.st2{font-size:70.0054px;}
	.st3{font-family:'HoeflerText-Regular';}
	.st4{font-size:31.0921px;}
	.st5{font-size:30.8818px;}
	.st6{font-size:30.7573px;}
	.st7{font-size:30.7055px;}
	.st8{font-size:30.6577px;}
	.st9{font-size:30.7363px;}
	.st10{font-size:30.815px;}
	.st11{font-size:30.9257px;}
	.st12{font-size:31.048px;}
	.st13{font-size:31.2104px;}
	.st14{font-size:31.3093px;}
	.st15{font-family:'BradleyHandITCTT-Bold';}
	.st16{font-size:62.4751px;}
	.st17{font-size:62.2712px;}
	.st18{font-size:62.0959px;}
	.st19{font-size:61.9193px;}
	.st20{font-size:61.5597px;}
	.st21{font-size:61.3999px;}
	.st22{font-size:61.3085px;}
	.st23{font-size:61.3746px;}
	.st24{font-size:61.4727px;}
	.st25{font-size:61.7191px;}
	.st26{font-size:61.8865px;}
</style>
<g>
	<path class="st0" d="M496.98,173.76l-25.52-52.58c-6.51-13.48-22.89-19.01-36.72-12.5l-2.53,1.23
		C378.5,47.76,291.88,16.93,204.98,37.16C84.05,65.31,7.33,181.97,30.41,300.13l-2.44,1.21c-13.83,6.51-19.64,22.62-13.13,36.1
		l25.52,52.58c6.51,13.48,22.89,19.01,36.72,12.5l2.27-1.07c53.35,62.58,140.39,93.71,227.58,73.41
		c121.21-28.22,198.01-145.44,174.49-263.79l2.44-1.21C497.57,203.33,503.48,187.2,496.98,173.76z M207.06,45.87
		c82.56-19.22,164.93,9.6,216.42,68.04l-6.48,3.08c-50.04-55.68-129.11-83.05-208.47-64.58C97.44,78.28,26.51,184.44,45.34,292.97
		l-6.48,3.08C18.35,183.29,91.81,72.7,207.06,45.87z M227.94,135.58c-57.22,13.32-96.37,62.56-98.19,117.38l-6.92,3.33
		c0.35-59.24,42.18-112.94,103.69-127.26c41.33-9.62,82.63,0.73,113.2,24.65l-6.92,3.33C303.95,135.74,265.98,126.72,227.94,135.58z
		 M325.75,160.27l-189.11,89.46c3.18-50.51,39.83-95.38,92.8-107.71C264.18,133.93,298.87,141.59,325.75,160.27z M225.41,124.71
		c-64.33,14.98-107.82,71.72-107.19,133.83L49.7,290.97C31.91,185.15,101.27,82.01,209.6,56.79
		c77.21-17.97,154.19,8.41,203.24,62.21l-68.53,32.38C312.4,125.8,269.03,114.56,225.41,124.71z M304.89,466.09
		c-82.99,19.32-165.6-9.89-217.04-68.78l6.48-3.08c49.92,56.24,129.34,83.84,209.03,65.28c111.43-25.94,182.45-132.57,163.01-241.35
		l6.48-3.08C494,328.04,420.42,439.2,304.89,466.09z M284,376.38c57.5-13.39,96.79-63.1,98.26-118.38l6.92-3.33
		c0.1,59.63-41.81,113.89-103.65,128.29c-41.76,9.72-83.32-0.91-113.98-25.2l6.92-3.33C207.31,376.09,245.54,385.34,284,376.38z
		 M185.31,351.16l190.01-89.92c-2.84,50.92-39.61,96.31-92.82,108.7C247.33,378.13,212.25,370.27,185.31,351.16z M286.53,387.25
		c64.62-15.04,108.22-72.36,107.18-134.76l68.33-32.38c18.26,106.1-51.17,209.8-159.79,235.09c-77.6,18.06-154.88-8.55-203.85-62.9
		l68.42-32.4C198.86,386.03,242.63,397.47,286.53,387.25z M479.36,201.62c-1.12,0.8-2.28,1.46-3.54,2.1l-4.8,2.3l-6.36,2.95
		l-4.2,2.06l-67.07,31.74l-4.39,2.1l-6.67,3.13l-6.67,3.13l-198.11,93.82l-6.67,3.13l-6.67,3.13l-4.39,2.1l-67.16,31.77l-4.2,2.06
		l-6.36,2.95l-4.63,2.16c-1.37,0.61-2.74,1.18-4.22,1.52c-10.43,2.72-21.67-2.09-26.46-11.89l-21.86-44.43
		c-4.83-9.94-1.47-21.64,7.37-27.98c1.12-0.8,2.28-1.46,3.54-2.1l4.8-2.3l6.36-2.95l4.2-2.06l67.32-31.75l4.39-2.1l6.76-3.15
		l6.67-3.13l197.43-93.47l6.67-3.13l6.76-3.15l4.39-2.1l67.26-31.79l4.2-2.06l6.36-2.95l4.99-2.34c1.27-0.59,2.48-1.02,3.79-1.42
		c10.47-2.98,21.95,1.78,26.89,11.79l21.55,44.6C491.58,183.63,488.21,195.33,479.36,201.62z"/>
</g>
<text transform="matrix(0.9219 -0.4383 0.4381 0.8989 66.0972 366.9837)" class="st0 st1 st2">gorpeln&apos;s</text>
<text transform="matrix(0.9219 -0.4383 0.4381 0.8989 325.7044 243.5566)" class="st0 st3 st2"> </text>
<text transform="matrix(0.9219 -0.4383 0.4381 0.8989 341.8384 235.887)" class="st0 st1 st2">Blog</text>
<text transform="matrix(0.7828 0.6136 -0.6341 0.7732 148.4763 396.5269)" class="st0 st1 st4">趁</text>
<text transform="matrix(0.9429 0.3569 -0.3738 0.9275 181.0629 419.03)" class="st0 st1 st5">年</text>
<text transform="matrix(1.0044 0.155 -0.1683 0.9857 220.2244 431.8324)" class="st0 st1 st6">轻</text>
<text transform="matrix(1.019 0.0369 -0.0479 0.9989 255.7019 436.0553)" class="st0 st1 st7">，</text>
<text transform="matrix(0.9826 -0.2839 0.2799 0.96 287.3293 429.6783)" class="st0 st1 st8">做</text>
<text transform="matrix(0.8587 -0.5462 0.5489 0.8359 326.9866 421.5548)" class="st0 st1 st9">自</text>
<text transform="matrix(0.7633 -0.6652 0.6713 0.7412 359.3722 405.6141)" class="st0 st1 st10">己</text>
<text transform="matrix(0.6376 -0.7774 0.787 0.6169 386.1022 380.826)" class="st0 st1 st11">想</text>
<text transform="matrix(0.4886 -0.8696 0.8826 0.4701 411.2397 349.2639)" class="st0 st1 st12">做</text>
<text transform="matrix(0.2531 -0.954 0.9712 0.2384 430.8383 314.0256)" class="st0 st1 st13">的</text>
<text transform="matrix(0.0469 -0.9796 0.9993 0.0362 443.3383 278.1348)" class="st0 st1 st14">！</text>
<text transform="matrix(0.2036 -0.964 0.9818 0.1898 84.5577 248.9707)" class="st0 st15 st16">g</text>
<text transform="matrix(0.3707 -0.92 0.9352 0.354 99.492 218.3752)" class="st0 st15 st17">0</text>
<text transform="matrix(0.4886 -0.8696 0.8826 0.4701 106.456 185.9876)" class="st0 st15 st18">r</text>
<text transform="matrix(0.597 -0.8062 0.8168 0.5769 122.961 158.629)" class="st0 st15 st19">p</text>
<text transform="matrix(0.807 -0.6155 0.6201 0.7845 147.6611 136.1799)" class="st0 st15 st20">e</text>
<text transform="matrix(0.9038 -0.4727 0.4733 0.8809 174.1263 122.3991)" class="st0 st15 st21">l</text>
<text transform="matrix(0.9931 -0.2455 0.2406 0.9706 197.3419 108.3299)" class="st0 st15 st22">n</text>
<text transform="matrix(0.9219 -0.4383 0.4381 0.8989 241.1019 103.8541)" class="st0 st15 st23">.</text>
<text transform="matrix(1.0111 0.1147 -0.1272 0.9919 256.5594 99.2097)" class="st0 st15 st24">t</text>
<text transform="matrix(0.9565 0.3235 -0.3398 0.9405 279.6053 101.5148)" class="st0 st15 st25">0</text>
<text transform="matrix(0.9022 0.4409 -0.459 0.8884 318.5494 99.2109)" class="st0 st15 st26">p</text>
</svg>
