<svg height="52" viewBox="0 0 52 52" width="52" xmlns="http://www.w3.org/2000/svg" xmlns:xlink="http://www.w3.org/1999/xlink"><linearGradient id="a" x1=".035179%" x2="99.964821%" y1="50.001138%" y2="50.001138%"><stop offset="0" stop-color="#ff9000"/><stop offset="1" stop-color="#fbae17"/></linearGradient><g fill="none" fill-rule="evenodd"><g fill-rule="nonzero"><rect fill="#ff8b00" height="52" rx="11.5" width="52"/><path d="m25.42 14.7h.41c1.2240396.0340948 2.2506096-.9169268 2.31-2.14.0869053-.7701004-.0742475-1.5478377-.46-2.22-.438256-.68908968-1.0093646-1.28399448-1.68-1.75-.3632129-.2686034-.7440716-.51248655-1.14-.73-.1645247-.10555666-.3754753-.10555666-.54 0-.1654267.12479972-.2589029.32296932-.25.53-.0088827 1.19703876-.0890245 2.392487-.24 3.58-.092134.5563647-.0440145 1.126925.14 1.66.2493018.5681117.7914096.9525853 1.41 1z" fill="#fff"/><path d="m11 22h30v14h-30z" fill="#fff"/><ellipse cx="26" cy="22.1" fill="#fff" rx="15" ry="4"/><path d="m38 26.06c.0715342-.8020997-.3153997-1.5759675-1-2-7.1075499-2.5735155-14.8924501-2.5735155-22 0-.6846003.4240325-1.0715342 1.1979003-1 2 0 1.15.62 2.07 1.38 2.07 1.35-3.09 4.26-3.54 6-.93l.62.93c2.05-3.85 6-3.86 8 0l.56-.86c1.73-2.64 4.65-2.23 6 .85.76 0 1.38-.92 1.38-2.07z" fill="url(#a)" opacity=".75"/></g><path d="m9.97 38h32.06" opacity=".75" stroke="#fff" stroke-linecap="round" stroke-width="4"/><rect fill="#fff" fill-rule="nonzero" height="6.07" rx="2.165" width="4.33" x="23.83" y="15.6"/></g></svg>