<svg height="52" viewBox="0 0 52 52" width="52" xmlns="http://www.w3.org/2000/svg"><g fill="none" fill-rule="evenodd"><rect fill="#007aff" fill-rule="nonzero" height="52" rx="11.5" transform="matrix(0 1 -1 0 52 0)" width="52"/><g fill="#fff" transform="translate(10 13)"><path d="m32 9.27v4.94c0 .09-.09.16-.21.16l-1.11-.19c-.0583646-.0198114-.1216354-.0198114-.18 0l-1.12.75c-.0857381.0650054-.2042619.0650054-.29 0-.0298309-.0249431-.0479441-.0611694-.05-.1v-4.79c.0107794-.21445687.168497-.3929268.38-.43l2.16-.6c.1660533-.0580388.3500133.00885576.44.16-.0007074.03425303-.0074787.06810975-.02.1z"/><path d="m17 .15 14.31 4.7c.5531656.25839808.8210336.89350431.62 1.47-.0987257.33002745-.3207575.60935775-.62.78l-14.46 4.74c-.5541597.2096938-1.1658403.2096938-1.72 0l-14.44-4.74c-.55316563-.25839808-.82103356-.89350431-.62-1.47.09872568-.33002745.32075745-.60935775.62-.78l14.44-4.74c.6154774-.15605185 1.2617585-.14222766 1.87.04z"/><path d="m26.29 11-8.6 3c-.5406538.208943-1.1111292.3304644-1.69.36-.5797336-.022806-1.1513009-.1445599-1.69-.36l-8.6-3c-.31-.11-.71.07-.71.36v11.54c-.03504049.5035069.24872785.9751219.71 1.18l8 2.52c1.5025845.480083 3.1174155.480083 4.62 0l8-2.52c.4612722-.2048781.7450405-.6764931.71-1.18v-11.5c-.04-.32-.46-.48-.75-.4z"/></g></g></svg>