<svg height="52" viewBox="0 0 52 52" width="52" xmlns="http://www.w3.org/2000/svg"><g fill="none"><rect fill="#28c636" height="52" rx="11.5" width="52"/><circle cx="26" cy="26" fill="#fff" fill-opacity=".34" r="17"/><circle cx="26" cy="26" fill="#fff" r="10"/><g transform="translate(25 7)"><path d="m12.7 6.68v-5.38c.0013001-.25175941-.1497716-.47930834-.3822976-.57582857-.232526-.09652022-.5003322-.04284514-.6777024.13582857l-6 6c-.2662845.26341016-.41116453.62561023-.4 1v5.2l1.73 1.73h4.77c.3739631.0087785.7352533-.1357375 1-.4l6.11-6c.1413719-.18131889.170796-.42598281.0764456-.63565051-.0943505-.2096677-.2969811-.34990699-.5264456-.36434949h-5c-.194668.02775424-.3909607-.03848151-.5290142-.17850716-.1380534-.14002565-.2014984-.33723805-.1709858-.53149284z" fill="#fff"/><path d="m11.4 8v-2.23c.0013001-.25175941-.1497716-.47930834-.3822976-.57582857-.232526-.09652022-.5003322-.04284514-.6777024.13582857l-2.44 2.44c-.26837293.26201998-.41363558.62517661-.4 1v2.43l-6.92 6.92 1.3 1.3 6.92-6.92h2.47c.3748234.0136356.73798-.1316271 1-.4l2.44-2.44c.1786737-.17737023.2323488-.44517643.1358286-.67770242-.0965203-.232526-.3240692-.3835977-.5758286-.38229758h-2.27c-.3269714-.01038782-.5896122-.27302856-.6-.6z" fill="#28c636"/></g><circle cx="26" cy="26" fill="#28c636" r="4"/></g></svg>