<svg height="52" viewBox="0 0 52 52" width="52" xmlns="http://www.w3.org/2000/svg" xmlns:xlink="http://www.w3.org/1999/xlink"><linearGradient id="a"><stop offset="0" stop-color="#fff"/><stop offset="1" stop-color="#fff"/></linearGradient><linearGradient id="b" x1="0%" x2="100%" xlink:href="#a" y1="49.998391%" y2="49.998391%"/><linearGradient id="c" x1=".000971%" x2="99.999029%" xlink:href="#a" y1="50%" y2="50%"/><linearGradient id="d" x1="0%" x2="99.300699%" xlink:href="#a" y1="50%" y2="50%"/><g fill="none"><rect fill="#00c9a2" height="52" rx="11.5" transform="matrix(-1 0 0 -1 52 52)" width="52"/><g transform="translate(12 10)"><path d="m23.86 3.83c-5.5821001-5.10517633-14.13789988-5.10517633-19.72 0-2.60177752 2.42267476-4.09788063 5.80516875-4.14 9.36 0 5.94 3.94 12.46 9.71 16.71.64.46 1.54 1 2.71 1.69.9824355.5465493 2.1775645.5465493 3.16 0 1.17-.67 2.07-1.23 2.71-1.69 5.77-4.25 9.71-10.77 9.71-16.71-.0421194-3.55483125-1.5382225-6.93732524-4.14-9.36zm-9.86 13.8500433c-2.5517552-.0220895-4.60458937-2.1046715-4.59000163-4.6564798.01474394-2.5518082 2.09137993-4.61065718 4.64321993-4.60339112 2.55184.00730461 4.6166865 2.07797722 4.6167817 4.62982762-.0052929 1.2332602-.5002857 2.4139054-1.3760831 3.2822013-.8757973.8682959-2.0606568 1.3531145-3.2939169 1.347842z" fill="url(#b)"/><g transform="translate(18 19)"><g stroke="#05ccaa" stroke-linecap="round" stroke-linejoin="round" stroke-width="4"><path d="m3.21 12.53c.15880063.8637559.91176776 1.4909103 1.79 1.4909103s1.63119937-.6271544 1.79-1.4909103z" fill="#fff"/><path d="m8.57 6.45v-1.3c.02783518-2.00102386-1.56905274-3.64711562-3.57-3.68-2.00094726.03288438-3.59783518 1.67897614-3.57 3.68v1.3c.00348385.9976604-.54749645 1.91467656-1.4300971 2.38-.0110791 1.1963042.94394118 2.1781007 2.1400971 2.2h5.72c1.19615592-.0218993 2.1511762-1.0036958 2.1400971-2.2-.88260065-.46532344-1.43358095-1.3823396-1.4300971-2.38z" fill="url(#c)"/><rect fill="url(#d)" height="2.94" rx=".67" width="1.43" x="4.29"/></g><g><path d="m3.21 12.5c.15880063.8637559.91176776 1.4909103 1.79 1.4909103s1.63119937-.6271544 1.79-1.4909103z" fill="#fff"/><path d="m8.57 6.45v-1.3c.02783518-2.00102386-1.56905274-3.64711562-3.57-3.68-2.00094726.03288438-3.59783518 1.67897614-3.57 3.68v1.3c.00348385.9976604-.54749645 1.91467656-1.4300971 2.38-.0110791 1.1963042.94394118 2.1781007 2.1400971 2.2h5.72c1.19615592-.0218993 2.1511762-1.0036958 2.1400971-2.2-.88260065-.46532344-1.43358095-1.3823396-1.4300971-2.38z" fill="url(#c)"/><rect fill="url(#d)" height="2.94" rx=".67" width="1.43" x="4.29"/></g></g></g></g></svg>