<svg height="52" viewBox="0 0 52 52" width="52" xmlns="http://www.w3.org/2000/svg" xmlns:xlink="http://www.w3.org/1999/xlink"><linearGradient id="a"><stop offset="0" stop-color="#fff"/><stop offset="1" stop-color="#fff"/></linearGradient><linearGradient id="b" x1="0%" x2="100%" xlink:href="#a" y1="50.157398%" y2="50.157398%"/><linearGradient id="c" x1="0%" x2="99.300699%" xlink:href="#a" y1="50%" y2="50%"/><g fill="none"><rect fill="#007aff" height="52" rx="11.5" width="52"/><rect fill="#fff" height="30" rx="5" width="28" x="12" y="11"/><g fill="#007aff"><rect height="2" rx="1" width="14" x="19" y="18"/><rect height="2" rx="1" width="14" x="19" y="24"/><rect height="2" rx="1" width="6" x="19" y="30"/></g><g stroke="#007aff" stroke-linecap="round" stroke-linejoin="round" stroke-width="4" transform="translate(31 30)"><path d="m3.21 12.53c.15880063.8637559.91176776 1.4909103 1.79 1.4909103s1.63119937-.6271544 1.79-1.4909103z" fill="#fff"/><path d="m8.57 6.45v-1.3c.02783518-2.00102386-1.56905274-3.64711562-3.57-3.68-2.00094726.03288438-3.59783518 1.67897614-3.57 3.68v1.3c.00348385.9976604-.54749645 1.91467656-1.43 2.38.00523495 1.1846389.95554874 2.1482749 2.14 2.17h5.72c1.18445126-.0217251 2.13476505-.9853611 2.14-2.17-.88250355-.46532344-1.43348385-1.3823396-1.43-2.38z" fill="url(#b)"/><rect fill="url(#c)" height="2.94" rx=".67" width="1.43" x="4.29"/></g><g transform="translate(31 30)"><path d="m3.21 12.5c.15880063.8637559.91176776 1.4909103 1.79 1.4909103s1.63119937-.6271544 1.79-1.4909103z" fill="#fff"/><path d="m8.57 6.45v-1.3c.02783518-2.00102386-1.56905274-3.64711562-3.57-3.68-2.00094726.03288438-3.59783518 1.67897614-3.57 3.68v1.3c.00348385.9976604-.54749645 1.91467656-1.43 2.38.00523495 1.1846389.95554874 2.1482749 2.14 2.17h5.72c1.18445126-.0217251 2.13476505-.9853611 2.14-2.17-.88250355-.46532344-1.43348385-1.3823396-1.43-2.38z" fill="url(#b)"/><rect fill="url(#c)" height="2.94" rx=".67" width="1.43" x="4.29"/></g></g></svg>