<svg height="52" viewBox="0 0 52 52" width="52" xmlns="http://www.w3.org/2000/svg"><g fill="none"><rect fill="#007aff" height="52" rx="11.82" transform="matrix(0 -1 1 0 0 52)" width="52"/><g transform="translate(13 12)"><path d="m24.07-.00027932h-21.14c-.76820922-.01039499-1.50905182.28525564-2.05883791.82190691-.5497861.53665128-.86326099 1.27012967-.87116209 2.03837241v22.28c.0079011.7682427.32137599 1.5017211.87116209 2.0383724.54978609.5366513 1.29062869.8323019 2.05883791.8219069h21.14c.7682092.010395 1.5090518-.2852556 2.0588379-.8219069s.863261-1.2701297.8711621-2.0383724v-22.28c-.0079011-.76824274-.321376-1.50172113-.8711621-2.03837241-.5497861-.53665127-1.2906287-.8323019-2.0588379-.82190691z" fill="#fff"/><g fill="#007aff"><circle cx="13" cy="10.35" r="3.35"/><path d="m13 16.26c-3.11 0-5.63 1.06-5.63 2.37v1.19c0 .3146958.12568155.6163589.34914201.8379415.22346046.2215827.52617349.3447254.84085799.3421009h8.88c.3146845.0026245.6173975-.1205182.840858-.3421009.2234605-.2215826.349142-.5232457.349142-.8379415v-1.19c0-1.31-2.52-2.37-5.63-2.37z"/></g></g><g fill="#fff"><rect height="3.38" rx="1.13" width="5.06" x="11" y="17.28"/><rect height="3.38" rx="1.13" width="5.06" x="11" y="24.31"/><rect height="3.38" rx="1.13" width="5.06" x="11" y="31.35"/></g></g></svg>