<svg height="52" viewBox="0 0 52 52" width="52" xmlns="http://www.w3.org/2000/svg" xmlns:xlink="http://www.w3.org/1999/xlink"><linearGradient id="a"><stop offset="0" stop-color="#fff"/><stop offset="1" stop-color="#fff"/></linearGradient><linearGradient id="b" x1="50%" x2="50%" xlink:href="#a" y1="0%" y2="89.933333%"/><linearGradient id="c" x1="0%" x2="100%" xlink:href="#a" y1="50%" y2="50%"/><g fill="none" fill-rule="evenodd"><rect fill="#28c636" fill-rule="nonzero" height="52" rx="11.5" transform="matrix(0 -1 1 0 0 52)" width="52"/><rect fill="url(#b)" fill-rule="nonzero" height="30" rx="6" width="28" x="12" y="12"/><g transform="translate(28 30)"><g fill-rule="nonzero"><circle cx="8" cy="8" fill="url(#c)" r="7"/><path d="m8 2c3.3137085 0 6 2.6862915 6 6s-2.6862915 6-6 6-6-2.6862915-6-6 2.6862915-6 6-6m0-2c-4.418278 0-8 3.581722-8 8s3.581722 8 8 8 8-3.581722 8-8-3.581722-8-8-8z" fill="#28c636"/></g><path d="m8 5v3h2" stroke="#28c636" stroke-linecap="round" stroke-linejoin="round" stroke-width="2"/></g><rect fill="#28c636" fill-rule="nonzero" height="2" rx="1" width="6" x="27" y="20"/><path d="m25 19-3 3-2-2" stroke="#28c636" stroke-linecap="round" stroke-linejoin="round" stroke-width="2"/><g fill="#28c636" fill-rule="nonzero"><rect height="2" rx="1" width="14" x="19" y="25"/><rect height="2" rx="1" width="6" x="19" y="30"/></g></g></svg>