<svg height="52" viewBox="0 0 52 52" width="52" xmlns="http://www.w3.org/2000/svg" xmlns:xlink="http://www.w3.org/1999/xlink"><linearGradient id="a"><stop offset="0" stop-color="#ff5140"/><stop offset="1" stop-color="#ff3a97"/></linearGradient><linearGradient id="b" x1="99.826923%" x2="-.846154%" xlink:href="#a" y1="50%" y2="50%"/><linearGradient id="c" x1="21.4206%" x2="66.053992%" xlink:href="#a" y1="65.996559%" y2="37.551425%"/><g fill="none"><rect fill="url(#b)" height="52" rx="11.5" transform="matrix(-1 0 0 -1 52 52)" width="52"/><path d="m26 43c8.2608962 0 14.9669564-6.6791698 15-14.94 0-6.33-4.12-11.84-12.35-17.27-1.610462-1.05064106-3.689538-1.05064106-5.3 0-8.23 5.43-12.35 10.94-12.35 17.27.0330436 8.2608302 6.7391038 14.94 15 14.94z" fill="#fff"/><path d="m34.42 25.86c-2.7174209-1.6726307-6.2736206-.8635953-8 1.82-1.0514079 1.8123135-2.8775032 3.0407661-4.9524369 3.3316082-2.0749336.2908421-4.1684023-.3882079-5.6775631-1.8416082-.1405773-.140655-.3544618-.1776149-.5340888-.0922921-.1796269.0853227-.2861154.2744598-.2659112.4722921.5375738 3.385755 2.6027555 6.3360145 5.6 8 5.1931243 2.918794 11.749651 1.4775628 15.24-3.35.9838638-1.2704822 1.3912102-2.8946967 1.1233421-4.4791082-.2678682-1.5844115-1.1865088-2.9844483-2.5333421-3.8608918z" fill="url(#c)" opacity=".75"/></g></svg>