<svg height="52" viewBox="0 0 52 52" width="52" xmlns="http://www.w3.org/2000/svg" xmlns:xlink="http://www.w3.org/1999/xlink"><linearGradient id="a" x1="0%" x2="100%" y1="50%" y2="50%"><stop offset="0" stop-color="#fff"/><stop offset="1" stop-color="#fff"/></linearGradient><g fill="none" fill-rule="evenodd"><rect fill="#ff8b00" fill-rule="nonzero" height="52" rx="11.5" transform="matrix(0 -1 1 0 0 52)" width="52"/><rect fill="#fff" fill-rule="nonzero" height="30" rx="6" width="28" x="12" y="11"/><g stroke="#ff8b00" stroke-linecap="round" stroke-linejoin="round" stroke-width="2" transform="translate(20 18)"><path d="m6 6v10"/><path d="m9 0-3 3-3-3"/><path d="m0 6h12"/><path d="m0 11h12"/></g><g fill-rule="nonzero" transform="translate(30 31)"><circle cx="7" cy="7" fill="url(#a)" r="6"/><g fill="#ff8b00"><path d="m7 2c2.76142375 0 5 2.23857625 5 5s-2.23857625 5-5 5-5-2.23857625-5-5 2.23857625-5 5-5m0-2c-3.86599325 0-7 3.13400675-7 7 0 3.8659932 3.13400675 7 7 7 3.8659932 0 7-3.1340068 7-7 0-3.86599325-3.1340068-7-7-7z"/><path d="m7 10c-.54783667-1.36806626-1.63193374-2.45216333-3-3 1.36806626-.54783667 2.45216333-1.63193374 3-3 .54783667 1.36806626 1.63193374 2.45216333 3 3-1.36806626.54783667-2.45216333 1.63193374-3 3z"/></g></g></g></svg>