<svg height="52" viewBox="0 0 52 52" width="52" xmlns="http://www.w3.org/2000/svg"><g fill="none"><rect fill="#ff8b00" height="52" rx="11.5" transform="matrix(0 -1 1 0 0 52)" width="52"/><path d="m38.25 11.999736c0 .9667623-.7835017 1.750264-1.75 1.750264s-1.75-.7835017-1.75-1.750264h-1.75c0 .9667623-.7835017 1.750264-1.75 1.750264s-1.75-.7835017-1.75-1.750264h-1.75c0 .9667623-.7835017 1.750264-1.75 1.750264s-1.75-.7835017-1.75-1.750264h-1.75c0 .9667623-.7835017 1.750264-1.75 1.750264s-1.75-.7835017-1.75-1.750264h-1.75c0 .9667623-.7835017 1.7502639-1.75 1.7502639s-1.75-.7835016-1.75-1.7502639c-.4579005-.007754-.9000917.1671724-1.2285846.4862798-.328493.3191075-.5161604.7560436-.5214154 1.2139842v22.91c.0328713 1.9015393 1.5983805 3.4178468 3.5 3.39h21c1.9016195.0278468 3.4671287-1.4884607 3.5-3.39v-22.91c-.005255-.4579406-.1929224-.8948767-.5214154-1.2139842-.3284929-.3191074-.7706841-.4940338-1.2285846-.4862798z" fill="#fff"/><g fill="#ff8b00"><rect height="2" rx=".87" width="18" x="17" y="19"/><rect height="2" rx=".87" width="18" x="17" y="25"/><rect height="2" rx=".87" width="6" x="17" y="31"/></g></g></svg>